<?xml version="1.0" encoding="utf-8"?>
<!-- Generator: Adobe Illustrator 22.1.0, SVG Export Plug-In . SVG Version: 6.00 Build 0)  -->
<svg version="1.1" id="Layer_1" xmlns="http://www.w3.org/2000/svg" xmlns:xlink="http://www.w3.org/1999/xlink" x="0px" y="0px"
	 viewBox="0 0 1366 768" style="enable-background:new 0 0 1366 768;" xml:space="preserve">
<style type="text/css">
	.st0{stroke:#FCD321;stroke-width:25;stroke-miterlimit:10;}
	.st1{stroke:#F79C1E;stroke-width:25;stroke-miterlimit:10;}
	.st2{stroke:#F15A24;stroke-width:25;stroke-miterlimit:10;}
	.st3{stroke:#C1272D;stroke-width:25;stroke-miterlimit:10;}
</style>
<path class="st0" d="M1555.4,427.7c-2.4-25.1-5.8-50.1-10.1-74.9c-4.3-24.6-8.4-50-16.1-73.8c-29.2-90.1-139.1-33-202-25
	c-86.1,10.9-175.8-9.4-248.8-56.3c-40.5-26-74.4-60.5-103.5-98.6c-28.8-37.8-51.3-79.4-77.5-118.9C875.5-53,844.6-77,802.8-69.4
	C759.7-61.6,725.1-28.5,696,2C635,65.9,582.1,136.9,520,199.7C455.8,264.6,381.5,316.5,292.3,340
	c-182.2,48.1-371.6-18.3-507.5-142.7c-32-29.3-61.2-61.5-87.5-96c-3.9-5.1-12.5-0.1-8.6,5C-206.8,243.3-54,347.2,120.4,363.5
	c87.9,8.2,178.6-5.9,258.1-44.9c77.1-37.9,139.2-98.6,195.5-162.2c29.1-32.9,57.1-66.8,86-99.9c28.5-32.6,57.6-67.8,93.4-92.7
	c18.7-13,40.5-24.2,63.8-24.8c23.7-0.6,43.6,11.1,58.7,28.7c14.6,17,25.2,37.5,36.9,56.6c12.1,19.9,24.7,39.5,38,58.6
	c26.2,37.3,55.8,72.6,91.5,101.1c32.3,25.8,68.8,46,107.7,60c38.5,13.8,79.2,21.5,120.1,22.7c42,1.2,82.1-5.7,122.5-16.7
	c33.5-9.1,81.7-23.7,110.7,3.7c17.3,16.3,20.7,43.3,25.5,65.4c5.6,26.5,10.2,53.2,13.6,80c10.9,86.4,19.7,193.1-55.5,254.3
	c-62.2,50.5-151.1,54.2-225.4,34c-93.9-25.5-175.5-81.6-264.7-118.9c-84.9-35.6-179.3-56.6-270.3-32.8
	c-40.9,10.7-79,30.5-110.1,59.3c-31.9,29.6-55.9,66.4-80.1,102.2c-23.7,35.1-48.9,68.6-79,98.5c-27.7,27.5-58.3,52-91.1,73.2
	c-66.7,43.1-141.9,72.5-219.8,87.3c-158.4,30-320.7-5.6-453.2-96.8c-130.9-90.1-228.9-228.1-269-382c-12.9-49.5-20-100.3-21-151.5
	c-0.1-6.4-10.1-6.4-10,0c3.4,172.3,76.1,337.9,197,460.1c111.4,112.6,261.1,184.9,420.3,190.6c157.8,5.6,318.5-50.2,435.8-156.5
	c29.3-26.6,55.4-56.3,78.4-88.4c26.5-37,49.7-76.7,80.3-110.6c65.1-72.3,162.7-95.3,256.8-81.5c101,14.9,188.9,66.3,279,110.7
	c77,37.9,159.9,69.1,247,55.5c76.6-12,143.1-58.6,163.1-136.1C1562.7,523.3,1559.9,474.6,1555.4,427.7z"/>
<path class="st1" d="M1555.4,460.7c-2.4-25.1-5.8-50.1-10.1-74.9c-4.3-24.6-8.4-50-16.1-73.8c-29.2-90.1-139.1-33-202-25
	c-86.1,10.9-175.8-9.4-248.8-56.3c-40.5-26-74.4-60.5-103.5-98.6c-28.8-37.8-51.3-79.4-77.5-118.9C875.5-20,844.6-44,802.8-36.4
	C759.7-28.6,725.1,4.5,696,35C635,98.9,582.1,169.9,520,232.7C455.8,297.6,381.5,349.5,292.3,373
	c-182.2,48.1-371.6-18.3-507.5-142.7c-32-29.3-61.2-61.5-87.5-96c-3.9-5.1-12.5-0.1-8.6,5C-206.8,276.3-54,380.2,120.4,396.5
	c87.9,8.2,178.6-5.9,258.1-44.9c77.1-37.9,139.2-98.6,195.5-162.2c29.1-32.9,57.1-66.8,86-99.9c28.5-32.6,57.6-67.8,93.4-92.7
	c18.7-13,40.5-24.2,63.8-24.8c23.7-0.6,43.6,11.1,58.7,28.7c14.6,17,25.2,37.5,36.9,56.6c12.1,19.9,24.7,39.5,38,58.6
	c26.2,37.3,55.8,72.6,91.5,101.1c32.3,25.8,68.8,46,107.7,60c38.5,13.8,79.2,21.5,120.1,22.7c42,1.2,82.1-5.7,122.5-16.7
	c33.5-9.1,81.7-23.7,110.7,3.7c17.3,16.3,20.7,43.3,25.5,65.4c5.6,26.5,10.2,53.2,13.6,80c10.9,86.4,19.7,193.1-55.5,254.3
	c-62.2,50.5-151.1,54.2-225.4,34c-93.9-25.5-175.5-81.6-264.7-118.9c-84.9-35.6-179.3-56.6-270.3-32.8
	c-40.9,10.7-79,30.5-110.1,59.3c-31.9,29.6-55.9,66.4-80.1,102.2c-23.7,35.1-48.9,68.6-79,98.5c-27.7,27.5-58.3,52-91.1,73.2
	c-66.7,43.1-141.9,72.5-219.8,87.3c-158.4,30-320.7-5.6-453.2-96.8c-130.9-90.1-228.9-228.1-269-382c-12.9-49.5-20-100.3-21-151.5
	c-0.1-6.4-10.1-6.4-10,0c3.4,172.3,76.1,337.9,197,460.1c111.4,112.6,261.1,184.9,420.3,190.6c157.8,5.6,318.5-50.2,435.8-156.5
	c29.3-26.6,55.4-56.3,78.4-88.4c26.5-37,49.7-76.7,80.3-110.6c65.1-72.3,162.7-95.3,256.8-81.5c101,14.9,188.9,66.3,279,110.7
	c77,37.9,159.9,69.1,247,55.5c76.6-12,143.1-58.6,163.1-136.1C1562.7,556.3,1559.9,507.6,1555.4,460.7z"/>
<path class="st2" d="M1555.4,487.7c-2.4-25.1-5.8-50.1-10.1-74.9c-4.3-24.6-8.4-50-16.1-73.8c-29.2-90.1-139.1-33-202-25
	c-86.1,10.9-175.8-9.4-248.8-56.3c-40.5-26-74.4-60.5-103.5-98.6c-28.8-37.8-51.3-79.4-77.5-118.9C875.5,7,844.6-17,802.8-9.4
	C759.7-1.6,725.1,31.5,696,62C635,125.9,582.1,196.9,520,259.7C455.8,324.6,381.5,376.5,292.3,400
	c-182.2,48.1-371.6-18.3-507.5-142.7c-32-29.3-61.2-61.5-87.5-96c-3.9-5.1-12.5-0.1-8.6,5C-206.8,303.3-54,407.2,120.4,423.5
	c87.9,8.2,178.6-5.9,258.1-44.9c77.1-37.9,139.2-98.6,195.5-162.2c29.1-32.9,57.1-66.8,86-99.9c28.5-32.6,57.6-67.8,93.4-92.7
	c18.7-13,40.5-24.2,63.8-24.8c23.7-0.6,43.6,11.1,58.7,28.7c14.6,17,25.2,37.5,36.9,56.6c12.1,19.9,24.7,39.5,38,58.6
	c26.2,37.3,55.8,72.6,91.5,101.1c32.3,25.8,68.8,46,107.7,60c38.5,13.8,79.2,21.5,120.1,22.7c42,1.2,82.1-5.7,122.5-16.7
	c33.5-9.1,81.7-23.7,110.7,3.7c17.3,16.3,20.7,43.3,25.5,65.4c5.6,26.5,10.2,53.2,13.6,80c10.9,86.4,19.7,193.1-55.5,254.3
	c-62.2,50.5-151.1,54.2-225.4,34c-93.9-25.5-175.5-81.6-264.7-118.9c-84.9-35.6-179.3-56.6-270.3-32.8
	c-40.9,10.7-79,30.5-110.1,59.3c-31.9,29.6-55.9,66.4-80.1,102.2c-23.7,35.1-48.9,68.6-79,98.5c-27.7,27.5-58.3,52-91.1,73.2
	c-66.7,43.1-141.9,72.5-219.8,87.3c-158.4,30-320.7-5.6-453.2-96.8c-130.9-90.1-228.9-228.1-269-382c-12.9-49.5-20-100.3-21-151.5
	c-0.1-6.4-10.1-6.4-10,0c3.4,172.3,76.1,337.9,197,460.1c111.4,112.6,261.1,184.9,420.3,190.6c157.8,5.6,318.5-50.2,435.8-156.5
	c29.3-26.6,55.4-56.3,78.4-88.4c26.5-37,49.7-76.7,80.3-110.6c65.1-72.3,162.7-95.3,256.8-81.5c101,14.9,188.9,66.3,279,110.7
	c77,37.9,159.9,69.1,247,55.5c76.6-12,143.1-58.6,163.1-136.1C1562.7,583.3,1559.9,534.6,1555.4,487.7z"/>
<path class="st3" d="M1555.4,517.7c-2.4-25.1-5.8-50.1-10.1-74.9c-4.3-24.6-8.4-50-16.1-73.8c-29.2-90.1-139.1-33-202-25
	c-86.1,10.9-175.8-9.4-248.8-56.3c-40.5-26-74.4-60.5-103.5-98.6c-28.8-37.8-51.3-79.4-77.5-118.9C875.5,37,844.6,13,802.8,20.6
	c-43.2,7.8-77.8,41-106.9,71.5C635,155.9,582.1,226.9,520,289.7C455.8,354.6,381.5,406.5,292.3,430
	c-182.2,48.1-371.6-18.3-507.5-142.7c-32-29.3-61.2-61.5-87.5-96c-3.9-5.1-12.5-0.1-8.6,5C-206.8,333.3-54,437.2,120.4,453.5
	c87.9,8.2,178.6-5.9,258.1-44.9c77.1-37.9,139.2-98.6,195.5-162.2c29.1-32.9,57.1-66.8,86-99.9c28.5-32.6,57.6-67.8,93.4-92.7
	c18.7-13,40.5-24.2,63.8-24.8c23.7-0.6,43.6,11.1,58.7,28.7c14.6,17,25.2,37.5,36.9,56.6c12.1,19.9,24.7,39.5,38,58.6
	c26.2,37.3,55.8,72.6,91.5,101.1c32.3,25.8,68.8,46,107.7,60c38.5,13.8,79.2,21.5,120.1,22.7c42,1.2,82.1-5.7,122.5-16.7
	c33.5-9.1,81.7-23.7,110.7,3.7c17.3,16.3,20.7,43.3,25.5,65.4c5.6,26.5,10.2,53.2,13.6,80c10.9,86.4,19.7,193.1-55.5,254.3
	c-62.2,50.5-151.1,54.2-225.4,34c-93.9-25.5-175.5-81.6-264.7-118.9c-84.9-35.6-179.3-56.6-270.3-32.8
	c-40.9,10.7-79,30.5-110.1,59.3c-31.9,29.6-55.9,66.4-80.1,102.2c-23.7,35.1-48.9,68.6-79,98.5c-27.7,27.5-58.3,52-91.1,73.2
	c-66.7,43.1-141.9,72.5-219.8,87.3c-158.4,30-320.7-5.6-453.2-96.8c-130.9-90.1-228.9-228.1-269-382c-12.9-49.5-20-100.3-21-151.5
	c-0.1-6.4-10.1-6.4-10,0c3.4,172.3,76.1,337.9,197,460.1c111.4,112.6,261.1,184.9,420.3,190.6c157.8,5.6,318.5-50.2,435.8-156.5
	c29.3-26.6,55.4-56.3,78.4-88.4c26.5-37,49.7-76.7,80.3-110.6c65.1-72.3,162.7-95.3,256.8-81.5c101,14.9,188.9,66.3,279,110.7
	c77,37.9,159.9,69.1,247,55.5c76.6-12,143.1-58.6,163.1-136.1C1562.7,613.3,1559.9,564.6,1555.4,517.7z"/>
</svg>
