<?xml version="1.0" encoding="utf-8"?>
<!-- Generator: Adobe Illustrator 22.1.0, SVG Export Plug-In . SVG Version: 6.00 Build 0)  -->
<svg version="1.1" id="Layer_1" xmlns="http://www.w3.org/2000/svg" xmlns:xlink="http://www.w3.org/1999/xlink" x="0px" y="0px"
	 viewBox="0 0 1920 270" style="enable-background:new 0 0 1920 270;" xml:space="preserve">
<style type="text/css">
	.st0{fill:#FCD321;}
	.st1{fill:#F79C1E;}
	.st2{fill:#F15A24;}
	.st3{fill:#C1272D;}
</style>
<g>
	<g>
		<path class="st0" d="M-41.5,96.8c33.5,53.8,106.6,50.1,160,35c39-11,78.9-27.3,120.1-23.6c38.2,3.5,69.2,30.1,106.8,36
			c68.6,10.7,128.7-33.6,193.7-46.3c68.7-13.4,126,28.5,186.9,52.5c29.8,11.8,61.5,18.5,93.5,12.7c31.8-5.8,59.9-23.6,86.8-40.5
			c28.5-17.8,58.2-36.5,92.4-39.6c32.8-3,65,6.7,95.6,17.6c32.4,11.6,64.2,25.4,98,32.4c33.4,6.8,66,4.7,98.3-6.3
			c33-11.2,63.5-28.5,96.7-39c34.4-10.9,67.6-9.6,101,4.5c32.4,13.7,61.3,34.4,93.1,49.2c34.6,16.1,72.5,23.8,110.7,20.4
			c39.5-3.5,74.2-19.7,109.8-35.8c32.1-14.6,67.1-28,103-22.1c15.8,2.6,30.2,9,41.7,20.2c8.3,8.1,21.1-4.7,12.7-12.7
			c-23.1-22.3-55.4-29.2-86.7-26c-36.7,3.7-69.3,20.5-102.5,35.4c-37.5,16.9-75.8,27.1-117.2,22.8c-38.3-4-71.4-21.1-104.3-39.9
			c-29-16.5-59-34.2-92.4-39.7c-34.1-5.7-66.9,2.7-98.4,15.5c-32.1,13.1-63.2,29.9-97.4,37c-33.8,7-67.5,0-99.7-10.6
			c-61.1-20.1-124.5-54.8-190.5-35.5c-62.5,18.3-110.5,79-178.9,77.1c-65.7-1.8-120-49.8-182.4-65.2c-32.5-8.1-64.9-5.4-96.8,3.9
			c-33,9.6-64.2,24.6-97.2,34.1c-34.6,10-67.1,10.3-100.5-4.2c-17.4-7.6-34.4-16.7-52.8-21.6c-18.4-5-37.6-5.4-56.4-3.1
			c-64.7,8.1-135,53-200.4,23.4c-12.7-6.2-23.3-15.1-30.7-27.1C-32,77.9-47.6,86.9-41.5,96.8L-41.5,96.8z"/>
	</g>
</g>
<g>
	<g>
		<path class="st1" d="M-41.5,114.8c33.5,53.8,106.6,50.1,160,35c39-11,78.9-27.3,120.1-23.6c38.2,3.5,69.2,30.1,106.8,36
			c68.6,10.7,128.7-33.6,193.7-46.3c68.7-13.4,126,28.5,186.9,52.5c29.8,11.8,61.5,18.5,93.5,12.7c31.8-5.8,59.9-23.6,86.8-40.5
			c28.5-17.8,58.2-36.5,92.4-39.6c32.8-3,65,6.7,95.6,17.6c32.4,11.6,64.2,25.4,98,32.4c33.4,6.8,66,4.7,98.3-6.3
			c33-11.2,63.5-28.5,96.7-39c34.4-10.9,67.6-9.6,101,4.5c32.4,13.7,61.3,34.4,93.1,49.2c34.6,16.1,72.5,23.8,110.7,20.4
			c39.5-3.5,74.2-19.7,109.8-35.8c32.1-14.6,67.1-28,103-22.1c15.8,2.6,30.2,9,41.7,20.2c8.3,8.1,21.1-4.7,12.7-12.7
			c-23.1-22.3-55.4-29.2-86.7-26c-36.7,3.7-69.3,20.5-102.5,35.4c-37.5,16.9-75.8,27.1-117.2,22.8c-38.3-4-71.4-21.1-104.3-39.9
			c-29-16.5-59-34.2-92.4-39.7c-34.1-5.7-66.9,2.7-98.4,15.5c-32.1,13.1-63.2,29.9-97.4,37c-33.8,7-67.5,0-99.7-10.6
			c-61.1-20.1-124.5-54.8-190.5-35.5c-62.5,18.3-110.5,79-178.9,77.1c-65.7-1.8-120-49.8-182.4-65.2c-32.5-8.1-64.9-5.4-96.8,3.9
			c-33,9.6-64.2,24.6-97.2,34.1c-34.6,10-67.1,10.3-100.5-4.2c-17.4-7.6-34.4-16.7-52.8-21.6c-18.4-5-37.6-5.4-56.4-3.1
			c-64.7,8.1-135,53-200.4,23.4C-8.1,127-18.7,118-26.1,106C-32,95.9-47.6,104.9-41.5,114.8L-41.5,114.8z"/>
	</g>
</g>
<g>
	<g>
		<path class="st2" d="M-41.5,129.8c33.5,53.8,106.6,50.1,160,35c39-11,78.9-27.3,120.1-23.6c38.2,3.5,69.2,30.1,106.8,36
			c68.6,10.7,128.7-33.6,193.7-46.3c68.7-13.4,126,28.5,186.9,52.5c29.8,11.8,61.5,18.5,93.5,12.7c31.8-5.8,59.9-23.6,86.8-40.5
			c28.5-17.8,58.2-36.5,92.4-39.6c32.8-3,65,6.7,95.6,17.6c32.4,11.6,64.2,25.4,98,32.4c33.4,6.8,66,4.7,98.3-6.3
			c33-11.2,63.5-28.5,96.7-39c34.4-10.9,67.6-9.6,101,4.5c32.4,13.7,61.3,34.4,93.1,49.2c34.6,16.1,72.5,23.8,110.7,20.4
			c39.5-3.5,74.2-19.7,109.8-35.8c32.1-14.6,67.1-28,103-22.1c15.8,2.6,30.2,9,41.7,20.2c8.3,8.1,21.1-4.7,12.7-12.7
			c-23.1-22.3-55.4-29.2-86.7-26c-36.7,3.7-69.3,20.5-102.5,35.4c-37.5,16.9-75.8,27.1-117.2,22.8c-38.3-4-71.4-21.1-104.3-39.9
			c-29-16.5-59-34.2-92.4-39.7c-34.1-5.7-66.9,2.7-98.4,15.5c-32.1,13.1-63.2,29.9-97.4,37c-33.8,7-67.5,0-99.7-10.6
			c-61.1-20.1-124.5-54.8-190.5-35.5c-62.5,18.3-110.5,79-178.9,77.1c-65.7-1.8-120-49.8-182.4-65.2c-32.5-8.1-64.9-5.4-96.8,3.9
			c-33,9.6-64.2,24.6-97.2,34.1c-34.6,10-67.1,10.3-100.5-4.2c-17.4-7.6-34.4-16.7-52.8-21.6c-18.4-5-37.6-5.4-56.4-3.1
			c-64.7,8.1-135,53-200.4,23.4C-8.1,142-18.7,133-26.1,121C-32,110.9-47.6,119.9-41.5,129.8L-41.5,129.8z"/>
	</g>
</g>
<g>
	<g>
		<path class="st3" d="M-41.5,147.8c33.5,53.8,106.6,50.1,160,35c39-11,78.9-27.3,120.1-23.6c38.2,3.5,69.2,30.1,106.8,36
			c68.6,10.7,128.7-33.6,193.7-46.3c68.7-13.4,126,28.5,186.9,52.5c29.8,11.8,61.5,18.5,93.5,12.7c31.8-5.8,59.9-23.6,86.8-40.5
			c28.5-17.8,58.2-36.5,92.4-39.6c32.8-3,65,6.7,95.6,17.6c32.4,11.6,64.2,25.4,98,32.4c33.4,6.8,66,4.7,98.3-6.3
			c33-11.2,63.5-28.5,96.7-39c34.4-10.9,67.6-9.6,101,4.5c32.4,13.7,61.3,34.4,93.1,49.2c34.6,16.1,72.5,23.8,110.7,20.4
			c39.5-3.5,74.2-19.7,109.8-35.8c32.1-14.6,67.1-28,103-22.1c15.8,2.6,30.2,9,41.7,20.2c8.3,8.1,21.1-4.7,12.7-12.7
			c-23.1-22.3-55.4-29.2-86.7-26c-36.7,3.7-69.3,20.5-102.5,35.4c-37.5,16.9-75.8,27.1-117.2,22.8c-38.3-4-71.4-21.1-104.3-39.9
			c-29-16.5-59-34.2-92.4-39.7c-34.1-5.7-66.9,2.7-98.4,15.5c-32.1,13.1-63.2,29.9-97.4,37c-33.8,7-67.5,0-99.7-10.6
			c-61.1-20.1-124.5-54.8-190.5-35.5c-62.5,18.3-110.5,79-178.9,77.1c-65.7-1.8-120-49.8-182.4-65.2c-32.5-8.1-64.9-5.4-96.8,3.9
			c-33,9.6-64.2,24.6-97.2,34.1c-34.6,10-67.1,10.3-100.5-4.2c-17.4-7.6-34.4-16.7-52.8-21.6c-18.4-5-37.6-5.4-56.4-3.1
			c-64.7,8.1-135,53-200.4,23.4C-8.1,160-18.7,151-26.1,139C-32,128.9-47.6,137.9-41.5,147.8L-41.5,147.8z"/>
	</g>
</g>
</svg>
