<?xml version="1.0" encoding="utf-8"?>
<!-- Generator: Adobe Illustrator 22.1.0, SVG Export Plug-In . SVG Version: 6.00 Build 0)  -->
<svg version="1.1" id="Layer_1" xmlns="http://www.w3.org/2000/svg" xmlns:xlink="http://www.w3.org/1999/xlink" x="0px" y="0px"
	 viewBox="0 0 1920 270" style="enable-background:new 0 0 1920 270;" xml:space="preserve">
<style type="text/css">
	.st0{fill:#FCD321;}
	.st1{fill:#F79C1E;}
	.st2{fill:#F15A24;}
	.st3{fill:#C1272D;}
</style>
<g>
	<g>
		<path class="st0" d="M203.4-44.5c28.8,22.3,51,50.7,74.5,78.2c22.2,25.9,46.6,49.4,76.6,66.2c30,16.8,64.4,26.7,98.9,24.8
			c35.5-1.9,68.3-15.9,101.8-26.1c31.5-9.6,64.5-14.6,95.9-1.8c25.1,10.2,44.9,29.5,64.7,47.4c20.6,18.6,42.1,36,68.3,45.9
			c32.1,12,67.8,10.9,100.8,3.4c34.1-7.8,65.5-23,95.1-41.5c30.9-19.3,60.3-41.2,93.1-57.5c64.4-31.9,142.5-37.6,211.8-19.7
			c72.5,18.7,131.5,69.6,204.8,86.2c34.4,7.8,70.8,8.6,104.3-3.4c28.6-10.2,53.6-27.5,80.1-42c26.9-14.7,56.4-24.9,87.3-18.5
			c30.8,6.4,56,26,82.7,41.4c26.8,15.5,55.4,25.1,86.7,24.2c28.7-0.9,58.6-8.9,82.1-25.8c10.4-7.4,19.3-16.4,25.8-27.5
			c5.9-10-9.7-19.1-15.5-9.1c-13.7,23.4-40.9,35.6-66.4,41.2c-30,6.5-60.8,3.1-88.4-10.4c-27-13.2-50.7-32.3-78.5-43.8
			c-28.2-11.7-59-13.1-88.1-3.5c-28,9.2-52.5,26-78,40.3c-29.6,16.5-59.8,26.3-94.1,24.6c-75.9-3.8-136.2-52.4-204.4-79.5
			c-64.5-25.7-138.5-28.8-205.4-11.2c-34.1,8.9-65.3,24.6-95,43.3c-29.6,18.7-57.9,39.8-89.5,55.2c-31.1,15.2-65.9,25.1-100.7,24.6
			c-31-0.5-58.7-11.3-83.1-30c-21.5-16.5-39.9-36.5-61.7-52.6c-22.6-16.6-48.7-27-77-27.7c-34-0.9-66.1,11.6-97.9,22.1
			c-33.8,11.1-67.8,18.4-103.2,10.4c-32.6-7.4-62.7-24.5-87.6-46.8C298.5,33.2,278.2,4.7,255-20.9c-12-13.2-24.7-25.5-38.8-36.4
			C207.1-64.3,194.3-51.6,203.4-44.5L203.4-44.5z"/>
	</g>
</g>
<g>
	<g>
		<path class="st1" d="M203.4-31.5c28.8,22.3,51,50.7,74.5,78.2c22.2,25.9,46.6,49.4,76.6,66.2c30,16.8,64.4,26.7,98.9,24.8
			c35.5-1.9,68.3-15.9,101.8-26.1c31.5-9.6,64.5-14.6,95.9-1.8c25.1,10.2,44.9,29.5,64.7,47.4c20.6,18.6,42.1,36,68.3,45.9
			c32.1,12,67.8,10.9,100.8,3.4c34.1-7.8,65.5-23,95.1-41.5c30.9-19.3,60.3-41.2,93.1-57.5c64.4-31.9,142.5-37.6,211.8-19.7
			c72.5,18.7,131.5,69.6,204.8,86.2c34.4,7.8,70.8,8.6,104.3-3.4c28.6-10.2,53.6-27.5,80.1-42c26.9-14.7,56.4-24.9,87.3-18.5
			c30.8,6.4,56,26,82.7,41.4c26.8,15.5,55.4,25.1,86.7,24.2c28.7-0.9,58.6-8.9,82.1-25.8c10.4-7.4,19.3-16.4,25.8-27.5
			c5.9-10-9.7-19.1-15.5-9.1c-13.7,23.4-40.9,35.6-66.4,41.2c-30,6.5-60.8,3.1-88.4-10.4c-27-13.2-50.7-32.3-78.5-43.8
			c-28.2-11.7-59-13.1-88.1-3.5c-28,9.2-52.5,26-78,40.3c-29.6,16.5-59.8,26.3-94.1,24.6c-75.9-3.8-136.2-52.4-204.4-79.5
			c-64.5-25.7-138.5-28.8-205.4-11.2c-34.1,8.9-65.3,24.6-95,43.3c-29.6,18.7-57.9,39.8-89.5,55.2c-31.1,15.2-65.9,25.1-100.7,24.6
			c-31-0.5-58.7-11.3-83.1-30c-21.5-16.5-39.9-36.5-61.7-52.6c-22.6-16.6-48.7-27-77-27.7c-34-0.9-66.1,11.6-97.9,22.1
			c-33.8,11.1-67.8,18.4-103.2,10.4c-32.6-7.4-62.7-24.5-87.6-46.8C298.5,46.2,278.2,17.7,255-7.9c-12-13.2-24.7-25.5-38.8-36.4
			C207.1-51.3,194.3-38.6,203.4-31.5L203.4-31.5z"/>
	</g>
</g>
<g>
	<g>
		<path class="st2" d="M203.4-16.5c28.8,22.3,51,50.7,74.5,78.2c22.2,25.9,46.6,49.4,76.6,66.2c30,16.8,64.4,26.7,98.9,24.8
			c35.5-1.9,68.3-15.9,101.8-26.1c31.5-9.6,64.5-14.6,95.9-1.8c25.1,10.2,44.9,29.5,64.7,47.4c20.6,18.6,42.1,36,68.3,45.9
			c32.1,12,67.8,10.9,100.8,3.4c34.1-7.8,65.5-23,95.1-41.5c30.9-19.3,60.3-41.2,93.1-57.5c64.4-31.9,142.5-37.6,211.8-19.7
			c72.5,18.7,131.5,69.6,204.8,86.2c34.4,7.8,70.8,8.6,104.3-3.4c28.6-10.2,53.6-27.5,80.1-42c26.9-14.7,56.4-24.9,87.3-18.5
			c30.8,6.4,56,26,82.7,41.4c26.8,15.5,55.4,25.1,86.7,24.2c28.7-0.9,58.6-8.9,82.1-25.8c10.4-7.4,19.3-16.4,25.8-27.5
			c5.9-10-9.7-19.1-15.5-9.1c-13.7,23.4-40.9,35.6-66.4,41.2c-30,6.5-60.8,3.1-88.4-10.4c-27-13.2-50.7-32.3-78.5-43.8
			c-28.2-11.7-59-13.1-88.1-3.5c-28,9.2-52.5,26-78,40.3c-29.6,16.5-59.8,26.3-94.1,24.6c-75.9-3.8-136.2-52.4-204.4-79.5
			c-64.5-25.7-138.5-28.8-205.4-11.2c-34.1,8.9-65.3,24.6-95,43.3c-29.6,18.7-57.9,39.8-89.5,55.2c-31.1,15.2-65.9,25.1-100.7,24.6
			c-31-0.5-58.7-11.3-83.1-30c-21.5-16.5-39.9-36.5-61.7-52.6c-22.6-16.6-48.7-27-77-27.7c-34-0.9-66.1,11.6-97.9,22.1
			c-33.8,11.1-67.8,18.4-103.2,10.4c-32.6-7.4-62.7-24.5-87.6-46.8C298.5,61.2,278.2,32.7,255,7.1c-12-13.2-24.7-25.5-38.8-36.4
			C207.1-36.3,194.3-23.6,203.4-16.5L203.4-16.5z"/>
	</g>
</g>
<g>
	<g>
		<path class="st3" d="M205.6-7.7c28.8,22.3,51,50.7,74.5,78.2c22,25.7,46.2,49.1,76,65.7c29.6,16.5,63.4,26.2,97.4,24.4
			c35.2-1.9,67.8-15.8,101.1-26c32-9.8,65.6-14.8,97.5-1.8c25.7,10.4,45.8,30,66,48.2c20.1,18.2,41.3,35.5,67,45.1
			c31.6,11.9,66.7,10.8,99.2,3.4c33.9-7.8,65-22.8,94.3-41.2c30.9-19.3,60.3-41.2,93.1-57.5c65.2-32.2,144-38.1,214.1-20
			c72.5,18.7,131.5,69.6,204.8,86.2c33.9,7.7,69.7,8.4,102.7-3.4c28.4-10.1,53.1-27.4,79.4-41.7c27.6-15.1,57.8-25.4,89.6-18.8
			c31.1,6.4,56.5,26.1,83.4,41.7c26.4,15.2,54.4,24.7,85.2,23.7c28.2-0.9,57.5-8.8,80.5-25.4c9.9-7.1,18.5-15.8,24.7-26.4
			c3.9-6.7-6.5-12.7-10.4-6.1c-14.1,24-41.9,36.9-68.2,42.6c-30.8,6.7-62.3,3.2-90.7-10.7c-26.9-13.2-50.5-32.2-78.2-43.7
			c-27.7-11.4-57.7-12.7-86.1-3.4c-27.8,9.1-52,25.9-77.3,40c-30,16.8-60.8,26.8-95.6,25c-76.3-3.8-136.7-52.3-205.2-79.6
			c-64-25.5-137.3-28.6-203.8-11.2c-33.8,8.9-64.8,24.4-94.3,43c-29.6,18.7-57.9,39.8-89.5,55.2c-31.6,15.4-66.9,25.6-102.2,25
			c-31.5-0.5-59.8-11.4-84.6-30.4c-21.5-16.4-39.9-36.5-61.7-52.6c-22.1-16.3-47.7-26.6-75.5-27.3c-33.7-0.9-65.6,11.6-97.1,21.9
			c-34.3,11.3-68.9,18.6-104.8,10.4c-33.2-7.6-63.7-25-88.9-47.5c-25.9-23.1-46.2-51.6-69.4-77.2c-12-13.2-24.7-25.5-38.8-36.4
			C208-20.8,199.5-12.4,205.6-7.7L205.6-7.7z"/>
	</g>
</g>
</svg>
