<?xml version="1.0" encoding="utf-8"?>
<!-- Generator: Adobe Illustrator 22.1.0, SVG Export Plug-In . SVG Version: 6.00 Build 0)  -->
<svg version="1.1" id="Layer_1" xmlns="http://www.w3.org/2000/svg" xmlns:xlink="http://www.w3.org/1999/xlink" x="0px" y="0px"
	 viewBox="0 0 1366 768" style="enable-background:new 0 0 1366 768;" xml:space="preserve">
<style type="text/css">
	.st0{stroke:#FCD321;stroke-width:25;stroke-miterlimit:10;}
	.st1{stroke:#F7931E;stroke-width:25;stroke-miterlimit:10;}
	.st2{stroke:#F15A24;stroke-width:25;stroke-miterlimit:10;}
	.st3{stroke:#C1272D;stroke-width:25;stroke-miterlimit:10;}
	.st4{stroke:#FBB03B;stroke-width:25;stroke-miterlimit:10;}
</style>
<path class="st0" d="M1202.2-189.9C1132-96.7,1058.9-4.8,973.4,74.9C893.2,149.6,801.1,213.5,697.9,252
	c-53.4,19.9-109.1,32.2-165.9,36.7c-60,4.7-120.3,1.5-180.1-4.6c-120.5-12.5-240-37.3-361.5-37.7c-29.2-0.1-58.7,1.1-87.2,7.9
	c-24.8,5.9-48.4,16.4-69.7,30.2c-41.8,27.1-75.1,65.1-105.6,104c-7.5,9.6-14.9,19.3-22.3,29c-3.9,5.1,4.8,10.1,8.6,5
	c30.7-40.4,62.3-81.3,102.1-113.3c19.6-15.7,41.4-29.1,65-37.9c28.2-10.5,58.3-13.9,88.2-14.7c120.9-3.2,240.4,21.3,360,35
	C446,305,564.1,307,676.8,270c102.7-33.7,195.5-92.8,276.6-163.6c87.1-76,161.2-165.3,231.3-256.8c8.8-11.5,17.5-23,26.2-34.5
	C1214.7-190,1206-195,1202.2-189.9z"/>
<path class="st0" d="M1640.5-82.3c-142.4-39-303.9,10.3-399.1,123.4c-115.7,137.5-124.4,325.5-121.1,496.7
	c1.6,81.7,3.4,171.2-45.8,241c-41.8,59.2-112.9,93.6-183.7,101.7c-81.6,9.4-163.1-16.4-233.3-56.6c-36.2-20.7-69.5-45.6-101.6-72.2
	c-29.8-24.7-59-50.4-91-72.3c-30.8-21.2-64.7-39-101.5-46.5c-38.9-7.9-79-3.6-116.2,10.1C168.2,672,111.2,736.3,66.8,805.3
	c-11.6,18-22.4,36.3-33.1,54.8c-3.2,5.6,5.4,10.6,8.6,5c41.8-72.6,89.4-146.9,162.9-191.1c35.6-21.4,76.5-35.4,118.4-35.4
	c39.1,0,76.3,13.1,109.9,32.5c68.1,39.4,121.9,98.8,187.5,141.9c67.4,44.4,145.3,76.8,226.9,79.2c68.9,2,139.8-19.5,193.4-63.5
	c27.5-22.6,49.5-51.3,63.7-84c16.3-37.5,22.7-78.2,24.9-118.7c2.3-42.3,0.3-84.7-0.1-127.1c-0.4-47.3,0.5-94.7,4.9-141.8
	c8-85.6,28.2-171.3,70.8-246.6c38.3-67.6,94.2-122.3,164.2-156.5c66.3-32.4,142-45.9,215.3-37.3c17.9,2.1,35.6,5.7,53,10.4
	C1644-70.9,1646.7-80.6,1640.5-82.3z"/>
<path class="st1" d="M1202.2-159.9C1132-66.7,1058.9,25.2,973.4,104.9C893.2,179.6,801.1,243.5,697.9,282
	c-53.4,19.9-109.1,32.2-165.9,36.7c-60,4.7-120.3,1.5-180.1-4.6c-120.5-12.5-240-37.3-361.5-37.7c-29.2-0.1-58.7,1.1-87.2,7.9
	c-24.8,5.9-48.4,16.4-69.7,30.2c-41.8,27.1-75.1,65.1-105.6,104c-7.5,9.6-14.9,19.3-22.3,29c-3.9,5.1,4.8,10.1,8.6,5
	c30.7-40.4,62.3-81.3,102.1-113.3c19.6-15.7,41.4-29.1,65-37.9c28.2-10.5,58.3-13.9,88.2-14.7c120.9-3.2,240.4,21.3,360,35
	C446,335,564.1,337,676.8,300c102.7-33.7,195.5-92.8,276.6-163.6c87.1-76,161.2-165.3,231.3-256.8c8.8-11.5,17.5-23,26.2-34.5
	C1214.7-160,1206-165,1202.2-159.9z"/>
<path class="st2" d="M1202.2-123.9C1132-30.7,1058.9,61.2,973.4,140.9C893.2,215.6,801.1,279.5,697.9,318
	c-53.4,19.9-109.1,32.2-165.9,36.7c-60,4.7-120.3,1.5-180.1-4.6c-120.5-12.5-240-37.3-361.5-37.7c-29.2-0.1-58.7,1.1-87.2,7.9
	c-24.8,5.9-48.4,16.4-69.7,30.2c-41.8,27.1-75.1,65.1-105.6,104c-7.5,9.6-14.9,19.3-22.3,29c-3.9,5.1,4.8,10.1,8.6,5
	c30.7-40.4,62.3-81.3,102.1-113.3c19.6-15.7,41.4-29.1,65-37.9c28.2-10.5,58.3-13.9,88.2-14.7c120.9-3.2,240.4,21.3,360,35
	C446,371,564.1,373,676.8,336c102.7-33.7,195.5-92.8,276.6-163.6c87.1-76,161.2-165.3,231.3-256.8c8.8-11.5,17.5-23,26.2-34.5
	C1214.7-124,1206-129,1202.2-123.9z"/>
<path class="st3" d="M1202.2-91.9C1132,1.3,1058.9,93.2,973.4,172.9C893.2,247.6,801.1,311.5,697.9,350
	c-53.4,19.9-109.1,32.2-165.9,36.7c-60,4.7-120.3,1.5-180.1-4.6c-120.5-12.5-240-37.3-361.5-37.7c-29.2-0.1-58.7,1.1-87.2,7.9
	c-24.8,5.9-48.4,16.4-69.7,30.2c-41.8,27.1-75.1,65.1-105.6,104c-7.5,9.6-14.9,19.3-22.3,29c-3.9,5.1,4.8,10.1,8.6,5
	c30.7-40.4,62.3-81.3,102.1-113.3c19.6-15.7,41.4-29.1,65-37.9c28.2-10.5,58.3-13.9,88.2-14.7c120.9-3.2,240.4,21.3,360,35
	C446,403,564.1,405,676.8,368c102.7-33.7,195.5-92.8,276.6-163.6c87.1-76,161.2-165.3,231.3-256.8c8.8-11.5,17.5-23,26.2-34.5
	C1214.7-92,1206-97,1202.2-91.9z"/>
<path class="st4" d="M1657.5-50.3c-142.4-39-303.9,10.3-399.1,123.4c-115.7,137.5-124.4,325.5-121.1,496.7
	c1.6,81.7,3.4,171.2-45.8,241c-41.8,59.2-112.9,93.6-183.7,101.7c-81.6,9.4-163.1-16.4-233.3-56.6c-36.2-20.7-69.5-45.6-101.6-72.2
	c-29.8-24.7-59-50.4-91-72.3c-30.8-21.2-64.7-39-101.5-46.5c-38.9-7.9-79-3.6-116.2,10.1C185.2,704,128.2,768.3,83.8,837.3
	c-11.6,18-22.4,36.3-33.1,54.8c-3.2,5.6,5.4,10.6,8.6,5c41.8-72.6,89.4-146.9,162.9-191.1c35.6-21.4,76.5-35.4,118.4-35.4
	c39.1,0,76.3,13.1,109.9,32.5c68.1,39.4,121.9,98.8,187.5,141.9c67.4,44.4,145.3,76.8,226.9,79.2c68.9,2,139.8-19.5,193.4-63.5
	c27.5-22.6,49.5-51.3,63.7-84c16.3-37.5,22.7-78.2,24.9-118.7c2.3-42.3,0.3-84.7-0.1-127.1c-0.4-47.3,0.5-94.7,4.9-141.8
	c8-85.6,28.2-171.3,70.8-246.6c38.3-67.6,94.2-122.3,164.2-156.5c66.3-32.4,142-45.9,215.3-37.3c17.9,2.1,35.6,5.7,53,10.4
	C1661-38.9,1663.7-48.6,1657.5-50.3z"/>
<path class="st2" d="M1675.5-20.3c-142.4-39-303.9,10.3-399.1,123.4c-115.7,137.5-124.4,325.5-121.1,496.7
	c1.6,81.7,3.4,171.2-45.8,241c-41.8,59.2-112.9,93.6-183.7,101.7c-81.6,9.4-163.1-16.4-233.3-56.6c-36.2-20.7-69.5-45.6-101.6-72.2
	c-29.8-24.7-59-50.4-91-72.3c-30.8-21.2-64.7-39-101.5-46.5c-38.9-7.9-79-3.6-116.2,10.1c-78.9,29.1-135.9,93.4-180.3,162.4
	c-11.6,18-22.4,36.3-33.1,54.8c-3.2,5.6,5.4,10.6,8.6,5c41.8-72.6,89.4-146.9,162.9-191.1c35.6-21.4,76.5-35.4,118.4-35.4
	c39.1,0,76.3,13.1,109.9,32.5c68.1,39.4,121.9,98.8,187.5,141.9c67.4,44.4,145.3,76.8,226.9,79.2c68.9,2,139.8-19.5,193.4-63.5
	c27.5-22.6,49.5-51.3,63.7-84c16.3-37.5,22.7-78.2,24.9-118.7c2.3-42.3,0.3-84.7-0.1-127.1c-0.4-47.3,0.5-94.7,4.9-141.8
	c8-85.6,28.2-171.3,70.8-246.6c38.3-67.6,94.2-122.3,164.2-156.5c66.3-32.4,142-45.9,215.3-37.3c17.9,2.1,35.6,5.7,53,10.4
	C1679-8.9,1681.7-18.6,1675.5-20.3z"/>
<path class="st3" d="M1690.5,12.7c-142.4-39-303.9,10.3-399.1,123.4c-115.7,137.5-124.4,325.5-121.1,496.7
	c1.6,81.7,3.4,171.2-45.8,241c-41.8,59.2-112.9,93.6-183.7,101.7c-81.6,9.4-163.1-16.4-233.3-56.6c-36.2-20.7-69.5-45.6-101.6-72.2
	c-29.8-24.7-59-50.4-91-72.3c-30.8-21.2-64.7-39-101.5-46.5c-38.9-7.9-79-3.6-116.2,10.1c-78.9,29.1-135.9,93.4-180.3,162.4
	c-11.6,18-22.4,36.3-33.1,54.8c-3.2,5.6,5.4,10.6,8.6,5c41.8-72.6,89.4-146.9,162.9-191.1c35.6-21.4,76.5-35.4,118.4-35.4
	c39.1,0,76.3,13.1,109.9,32.5c68.1,39.4,121.9,98.8,187.5,141.9c67.4,44.4,145.3,76.8,226.9,79.2c68.9,2,139.8-19.5,193.4-63.5
	c27.5-22.6,49.5-51.3,63.7-84c16.3-37.5,22.7-78.2,24.9-118.7c2.3-42.3,0.3-84.7-0.1-127.1c-0.4-47.3,0.5-94.7,4.9-141.8
	c8-85.6,28.2-171.3,70.8-246.6c38.3-67.6,94.2-122.3,164.2-156.5c66.3-32.4,142-45.9,215.3-37.3c17.9,2.1,35.6,5.7,53,10.4
	C1694,24.1,1696.7,14.4,1690.5,12.7z"/>
</svg>
